<svg xmlns="http://www.w3.org/2000/svg" viewBox="0 0 252.9 228.95"><title>logo</title><path d="M177.91,112.41C148,100.81,125.18,80.2,107.4,53.25l29.69-35.39a12.54,12.54,0,0,1,17.67-1.54l51.29,43A12.54,12.54,0,0,1,207.6,77Z" transform="translate(-1.41 -13.38)" style="fill:#f9b1b1"/><path d="M140.15,157.4c-28.1-10.7-51.18-31.26-70.5-59.16l37.75-45,70.51,59.16Z" transform="translate(-1.41 -13.38)" style="fill:#f47c7c"/><path d="M69.65,98.24l-37.75,45-19.73,23.5a46,46,0,0,0,5.68,64.84h0a46,46,0,0,0,64.83-5.68l19.72-23.5,37.75-45Z" transform="translate(-1.41 -13.38)" style="fill:#ee6161"/><path d="M201.15,175.4Q173.93,138.92,162.26,92l41.86-19.52a12.55,12.55,0,0,1,16.67,6.06l28.3,60.68A12.55,12.55,0,0,1,243,155.88Z" transform="translate(-1.41 -13.38)" style="fill:#fef0ae"/><path d="M147.92,200.22A204.7,204.7,0,0,1,109,116.81L162.26,92l38.89,83.42Z" transform="translate(-1.41 -13.38)" style="fill:#fee45a"/><path d="M109,116.81,55.79,141.63,28,154.6A46,46,0,0,0,5.73,215.75h0A46,46,0,0,0,66.88,238l27.81-13,53.23-24.82Z" transform="translate(-1.41 -13.38)" style="fill:#fed402"/><path d="M195.57,150.29c-13.15,32.32-14.73,63.19,0,92H242a12.28,12.28,0,0,0,12.28-12.27V162.57A12.28,12.28,0,0,0,242,150.29Z" transform="translate(-1.41 -13.38)" style="fill:#c8effe"/><path d="M136.84,150.29q-17.5,46,0,92h58.73v-92Z" transform="translate(-1.41 -13.38)" style="fill:#62dbfb"/><path d="M78.1,150.29c-9.21,30.45-10.32,61.1,0,92h58.74v-92Z" transform="translate(-1.41 -13.38)" style="fill:#01d0fb"/><path d="M1.41,196.31h0a46,46,0,0,0,46,46H78.11v-92H47.43A46,46,0,0,0,1.41,196.31Z" transform="translate(-1.41 -13.38)" style="fill:#b4d2db"/><path d="M35.48,209.69a13.38,13.38,0,1,1,13.38-13.38A13.39,13.39,0,0,1,35.48,209.69Z" transform="translate(-1.41 -13.38)" style="fill:#fff"/></svg>